<?xml version="1.0" encoding="UTF-8" standalone="no"?>
<!DOCTYPE svg PUBLIC "-//W3C//DTD SVG 1.1//EN"
 "http://www.w3.org/Graphics/SVG/1.1/DTD/svg11.dtd">
<!-- Generated by graphviz version 2.47.3 (20210619.1520)
 -->
<!-- Title: dependencies Pages: 1 -->
<svg width="5740pt" height="247pt"
 viewBox="0.00 0.00 5740.00 246.80" xmlns="http://www.w3.org/2000/svg" xmlns:xlink="http://www.w3.org/1999/xlink">
<g id="graph0" class="graph" transform="scale(1 1) rotate(0) translate(4 242.8)">
<title>dependencies</title>
<polygon fill="white" stroke="transparent" points="-4,4 -4,-242.8 5736,-242.8 5736,4 -4,4"/>
<text text-anchor="middle" x="2866" y="-8.2" font-family="sans-serif" font-size="14.00">dependencies</text>
<g id="clust1" class="cluster">
<title>cluster_AppModule</title>
<polygon fill="none" stroke="black" stroke-dasharray="1,5" points="8,-32.8 8,-230.8 5724,-230.8 5724,-32.8 8,-32.8"/>
</g>
<g id="clust34" class="cluster">
<title>cluster_AppModule_bootstrap</title>
<polygon fill="none" stroke="black" points="2937,-170.8 2937,-222.8 3061,-222.8 3061,-170.8 2937,-170.8"/>
</g>
<g id="clust32" class="cluster">
<title>cluster_AppModule_imports</title>
<polygon fill="none" stroke="black" points="5427,-40.8 5427,-92.8 5716,-92.8 5716,-40.8 5427,-40.8"/>
</g>
<g id="clust2" class="cluster">
<title>cluster_AppModule_declarations</title>
<polygon fill="none" stroke="black" points="16,-40.8 16,-92.8 5419,-92.8 5419,-40.8 16,-40.8"/>
</g>
<!-- AddCustomerComponent -->
<g id="node1" class="node">
<title>AddCustomerComponent</title>
<polygon fill="#ffffb3" stroke="black" points="5410.88,-84.8 5251.12,-84.8 5251.12,-48.8 5410.88,-48.8 5410.88,-84.8"/>
<text text-anchor="middle" x="5331" y="-62.6" font-family="Times,serif" font-size="14.00">AddCustomerComponent</text>
</g>
<!-- AppModule -->
<g id="node30" class="node">
<title>AppModule</title>
<polygon fill="#8dd3c7" stroke="black" points="3040.66,-149.8 3037.66,-153.8 3016.66,-153.8 3013.66,-149.8 2957.34,-149.8 2957.34,-113.8 3040.66,-113.8 3040.66,-149.8"/>
<text text-anchor="middle" x="2999" y="-127.6" font-family="Times,serif" font-size="14.00">AppModule</text>
</g>
<!-- AddCustomerComponent&#45;&gt;AppModule -->
<g id="edge1" class="edge">
<title>AddCustomerComponent&#45;&gt;AppModule</title>
<path fill="none" stroke="black" d="M5331,-85.05C5331,-107.82 5331,-143.8 5331,-143.8 5331,-143.8 3050.97,-143.8 3050.97,-143.8"/>
<polygon fill="black" stroke="black" points="3050.97,-140.3 3040.97,-143.8 3050.97,-147.3 3050.97,-140.3"/>
</g>
<!-- AddTicketComponent -->
<g id="node2" class="node">
<title>AddTicketComponent</title>
<polygon fill="#ffffb3" stroke="black" points="5232.7,-84.8 5091.3,-84.8 5091.3,-48.8 5232.7,-48.8 5232.7,-84.8"/>
<text text-anchor="middle" x="5162" y="-62.6" font-family="Times,serif" font-size="14.00">AddTicketComponent</text>
</g>
<!-- AddTicketComponent&#45;&gt;AppModule -->
<g id="edge2" class="edge">
<title>AddTicketComponent&#45;&gt;AppModule</title>
<path fill="none" stroke="black" d="M5162,-85.09C5162,-107.01 5162,-140.8 5162,-140.8 5162,-140.8 3050.76,-140.8 3050.76,-140.8"/>
<polygon fill="black" stroke="black" points="3050.76,-137.3 3040.76,-140.8 3050.76,-144.3 3050.76,-137.3"/>
</g>
<!-- AddbusComponent -->
<g id="node3" class="node">
<title>AddbusComponent</title>
<polygon fill="#ffffb3" stroke="black" points="5073.38,-84.8 4948.62,-84.8 4948.62,-48.8 5073.38,-48.8 5073.38,-84.8"/>
<text text-anchor="middle" x="5011" y="-62.6" font-family="Times,serif" font-size="14.00">AddbusComponent</text>
</g>
<!-- AddbusComponent&#45;&gt;AppModule -->
<g id="edge3" class="edge">
<title>AddbusComponent&#45;&gt;AppModule</title>
<path fill="none" stroke="black" d="M5011,-84.97C5011,-106.3 5011,-138.8 5011,-138.8 5011,-138.8 3051.02,-138.8 3051.02,-138.8"/>
<polygon fill="black" stroke="black" points="3051.02,-135.3 3041.02,-138.8 3051.02,-142.3 3051.02,-135.3"/>
</g>
<!-- AppComponent -->
<g id="node4" class="node">
<title>AppComponent</title>
<polygon fill="#ffffb3" stroke="black" points="4930.94,-84.8 4825.06,-84.8 4825.06,-48.8 4930.94,-48.8 4930.94,-84.8"/>
<text text-anchor="middle" x="4878" y="-62.6" font-family="Times,serif" font-size="14.00">AppComponent</text>
</g>
<!-- AppComponent&#45;&gt;AppModule -->
<g id="edge4" class="edge">
<title>AppComponent&#45;&gt;AppModule</title>
<path fill="none" stroke="black" d="M4878,-84.83C4878,-105.57 4878,-136.8 4878,-136.8 4878,-136.8 3050.88,-136.8 3050.88,-136.8"/>
<polygon fill="black" stroke="black" points="3050.88,-133.3 3040.88,-136.8 3050.88,-140.3 3050.88,-133.3"/>
</g>
<!-- CustomerDashbordComponent -->
<g id="node5" class="node">
<title>CustomerDashbordComponent</title>
<polygon fill="#ffffb3" stroke="black" points="4807.2,-84.8 4616.8,-84.8 4616.8,-48.8 4807.2,-48.8 4807.2,-84.8"/>
<text text-anchor="middle" x="4712" y="-62.6" font-family="Times,serif" font-size="14.00">CustomerDashbordComponent</text>
</g>
<!-- CustomerDashbordComponent&#45;&gt;AppModule -->
<g id="edge5" class="edge">
<title>CustomerDashbordComponent&#45;&gt;AppModule</title>
<path fill="none" stroke="black" d="M4712,-85.02C4712,-105.17 4712,-134.8 4712,-134.8 4712,-134.8 3050.92,-134.8 3050.92,-134.8"/>
<polygon fill="black" stroke="black" points="3050.92,-131.3 3040.92,-134.8 3050.92,-138.3 3050.92,-131.3"/>
</g>
<!-- DeleteBusComponent -->
<g id="node6" class="node">
<title>DeleteBusComponent</title>
<polygon fill="#ffffb3" stroke="black" points="4598.65,-84.8 4459.35,-84.8 4459.35,-48.8 4598.65,-48.8 4598.65,-84.8"/>
<text text-anchor="middle" x="4529" y="-62.6" font-family="Times,serif" font-size="14.00">DeleteBusComponent</text>
</g>
<!-- DeleteBusComponent&#45;&gt;AppModule -->
<g id="edge6" class="edge">
<title>DeleteBusComponent&#45;&gt;AppModule</title>
<path fill="none" stroke="black" d="M4529,-84.91C4529,-104.14 4529,-131.8 4529,-131.8 4529,-131.8 3050.72,-131.8 3050.72,-131.8"/>
<polygon fill="black" stroke="black" points="3050.72,-128.3 3040.72,-131.8 3050.72,-135.3 3050.72,-128.3"/>
</g>
<!-- DeleteCustomerComponent -->
<g id="node7" class="node">
<title>DeleteCustomerComponent</title>
<polygon fill="#ffffb3" stroke="black" points="4441.3,-84.8 4268.7,-84.8 4268.7,-48.8 4441.3,-48.8 4441.3,-84.8"/>
<text text-anchor="middle" x="4355" y="-62.6" font-family="Times,serif" font-size="14.00">DeleteCustomerComponent</text>
</g>
<!-- DeleteCustomerComponent&#45;&gt;AppModule -->
<g id="edge7" class="edge">
<title>DeleteCustomerComponent&#45;&gt;AppModule</title>
<path fill="none" stroke="black" d="M4355,-85.02C4355,-103.63 4355,-129.8 4355,-129.8 4355,-129.8 3050.7,-129.8 3050.7,-129.8"/>
<polygon fill="black" stroke="black" points="3050.7,-126.3 3040.7,-129.8 3050.7,-133.3 3050.7,-126.3"/>
</g>
<!-- EmployeeDashbordComponent -->
<g id="node8" class="node">
<title>EmployeeDashbordComponent</title>
<polygon fill="#ffffb3" stroke="black" points="4251.02,-84.8 4058.98,-84.8 4058.98,-48.8 4251.02,-48.8 4251.02,-84.8"/>
<text text-anchor="middle" x="4155" y="-62.6" font-family="Times,serif" font-size="14.00">EmployeeDashbordComponent</text>
</g>
<!-- EmployeeDashbordComponent&#45;&gt;AppModule -->
<g id="edge8" class="edge">
<title>EmployeeDashbordComponent&#45;&gt;AppModule</title>
<path fill="none" stroke="black" d="M4155,-85.1C4155,-103.07 4155,-127.8 4155,-127.8 4155,-127.8 3050.83,-127.8 3050.83,-127.8"/>
<polygon fill="black" stroke="black" points="3050.83,-124.3 3040.83,-127.8 3050.83,-131.3 3050.83,-124.3"/>
</g>
<!-- EmployeeloginComponent -->
<g id="node9" class="node">
<title>EmployeeloginComponent</title>
<polygon fill="#ffffb3" stroke="black" points="4040.38,-84.8 3873.62,-84.8 3873.62,-48.8 4040.38,-48.8 4040.38,-84.8"/>
<text text-anchor="middle" x="3957" y="-62.6" font-family="Times,serif" font-size="14.00">EmployeeloginComponent</text>
</g>
<!-- EmployeeloginComponent&#45;&gt;AppModule -->
<g id="edge9" class="edge">
<title>EmployeeloginComponent&#45;&gt;AppModule</title>
<path fill="none" stroke="black" d="M3957,-84.82C3957,-102.17 3957,-125.8 3957,-125.8 3957,-125.8 3050.78,-125.8 3050.78,-125.8"/>
<polygon fill="black" stroke="black" points="3050.78,-122.3 3040.78,-125.8 3050.78,-129.3 3050.78,-122.3"/>
</g>
<!-- GetBusByIdComponent -->
<g id="node10" class="node">
<title>GetBusByIdComponent</title>
<polygon fill="#ffffb3" stroke="black" points="3855.82,-84.8 3704.18,-84.8 3704.18,-48.8 3855.82,-48.8 3855.82,-84.8"/>
<text text-anchor="middle" x="3780" y="-62.6" font-family="Times,serif" font-size="14.00">GetBusByIdComponent</text>
</g>
<!-- GetBusByIdComponent&#45;&gt;AppModule -->
<g id="edge10" class="edge">
<title>GetBusByIdComponent&#45;&gt;AppModule</title>
<path fill="none" stroke="black" d="M3780,-84.83C3780,-101.2 3780,-122.8 3780,-122.8 3780,-122.8 3050.71,-122.8 3050.71,-122.8"/>
<polygon fill="black" stroke="black" points="3050.71,-119.3 3040.71,-122.8 3050.71,-126.3 3050.71,-119.3"/>
</g>
<!-- GetBusByNameComponent -->
<g id="node11" class="node">
<title>GetBusByNameComponent</title>
<polygon fill="#ffffb3" stroke="black" points="3686.59,-84.8 3513.41,-84.8 3513.41,-48.8 3686.59,-48.8 3686.59,-84.8"/>
<text text-anchor="middle" x="3600" y="-62.6" font-family="Times,serif" font-size="14.00">GetBusByNameComponent</text>
</g>
<!-- GetBusByNameComponent&#45;&gt;AppModule -->
<g id="edge11" class="edge">
<title>GetBusByNameComponent&#45;&gt;AppModule</title>
<path fill="none" stroke="black" d="M3600,-85.08C3600,-100.75 3600,-120.8 3600,-120.8 3600,-120.8 3050.78,-120.8 3050.78,-120.8"/>
<polygon fill="black" stroke="black" points="3050.78,-117.3 3040.78,-120.8 3050.78,-124.3 3050.78,-117.3"/>
</g>
<!-- GetBusBySourceComponent -->
<g id="node12" class="node">
<title>GetBusBySourceComponent</title>
<polygon fill="#ffffb3" stroke="black" points="3495.04,-84.8 3316.96,-84.8 3316.96,-48.8 3495.04,-48.8 3495.04,-84.8"/>
<text text-anchor="middle" x="3406" y="-62.6" font-family="Times,serif" font-size="14.00">GetBusBySourceComponent</text>
</g>
<!-- GetBusBySourceComponent&#45;&gt;AppModule -->
<g id="edge12" class="edge">
<title>GetBusBySourceComponent&#45;&gt;AppModule</title>
<path fill="none" stroke="black" d="M3406,-84.99C3406,-99.98 3406,-118.8 3406,-118.8 3406,-118.8 3051.02,-118.8 3051.02,-118.8"/>
<polygon fill="black" stroke="black" points="3051.02,-115.3 3041.02,-118.8 3051.02,-122.3 3051.02,-115.3"/>
</g>
<!-- GetBusBytypeComponent -->
<g id="node13" class="node">
<title>GetBusBytypeComponent</title>
<polygon fill="#ffffb3" stroke="black" points="3298.77,-84.8 3135.23,-84.8 3135.23,-48.8 3298.77,-48.8 3298.77,-84.8"/>
<text text-anchor="middle" x="3217" y="-62.6" font-family="Times,serif" font-size="14.00">GetBusBytypeComponent</text>
</g>
<!-- GetBusBytypeComponent&#45;&gt;AppModule -->
<g id="edge13" class="edge">
<title>GetBusBytypeComponent&#45;&gt;AppModule</title>
<path fill="none" stroke="black" d="M3217,-84.85C3217,-99.17 3217,-116.8 3217,-116.8 3217,-116.8 3050.77,-116.8 3050.77,-116.8"/>
<polygon fill="black" stroke="black" points="3050.77,-113.3 3040.77,-116.8 3050.77,-120.3 3050.77,-113.3"/>
</g>
<!-- GetCustomerBycustomerIdComponent -->
<g id="node14" class="node">
<title>GetCustomerBycustomerIdComponent</title>
<polygon fill="#ffffb3" stroke="black" points="3116.79,-84.8 2881.21,-84.8 2881.21,-48.8 3116.79,-48.8 3116.79,-84.8"/>
<text text-anchor="middle" x="2999" y="-62.6" font-family="Times,serif" font-size="14.00">GetCustomerBycustomerIdComponent</text>
</g>
<!-- GetCustomerBycustomerIdComponent&#45;&gt;AppModule -->
<g id="edge14" class="edge">
<title>GetCustomerBycustomerIdComponent&#45;&gt;AppModule</title>
<path fill="none" stroke="black" d="M2999,-84.91C2999,-84.91 2999,-103.79 2999,-103.79"/>
<polygon fill="black" stroke="black" points="2995.5,-103.79 2999,-113.79 3002.5,-103.79 2995.5,-103.79"/>
</g>
<!-- GetCustomersBycustomerEmailIdComponent -->
<g id="node15" class="node">
<title>GetCustomersBycustomerEmailIdComponent</title>
<polygon fill="#ffffb3" stroke="black" points="2863.18,-84.8 2588.82,-84.8 2588.82,-48.8 2863.18,-48.8 2863.18,-84.8"/>
<text text-anchor="middle" x="2726" y="-62.6" font-family="Times,serif" font-size="14.00">GetCustomersBycustomerEmailIdComponent</text>
</g>
<!-- GetCustomersBycustomerEmailIdComponent&#45;&gt;AppModule -->
<g id="edge15" class="edge">
<title>GetCustomersBycustomerEmailIdComponent&#45;&gt;AppModule</title>
<path fill="none" stroke="black" d="M2726,-84.85C2726,-99.17 2726,-116.8 2726,-116.8 2726,-116.8 2947.24,-116.8 2947.24,-116.8"/>
<polygon fill="black" stroke="black" points="2947.24,-120.3 2957.24,-116.8 2947.24,-113.3 2947.24,-120.3"/>
</g>
<!-- GetCustomersBycustomerNameComponent -->
<g id="node16" class="node">
<title>GetCustomersBycustomerNameComponent</title>
<polygon fill="#ffffb3" stroke="black" points="2571.01,-84.8 2308.99,-84.8 2308.99,-48.8 2571.01,-48.8 2571.01,-84.8"/>
<text text-anchor="middle" x="2440" y="-62.6" font-family="Times,serif" font-size="14.00">GetCustomersBycustomerNameComponent</text>
</g>
<!-- GetCustomersBycustomerNameComponent&#45;&gt;AppModule -->
<g id="edge16" class="edge">
<title>GetCustomersBycustomerNameComponent&#45;&gt;AppModule</title>
<path fill="none" stroke="black" d="M2440,-84.99C2440,-99.98 2440,-118.8 2440,-118.8 2440,-118.8 2946.98,-118.8 2946.98,-118.8"/>
<polygon fill="black" stroke="black" points="2946.98,-122.3 2956.98,-118.8 2946.98,-115.3 2946.98,-122.3"/>
</g>
<!-- HomeComponent -->
<g id="node17" class="node">
<title>HomeComponent</title>
<polygon fill="#ffffb3" stroke="black" points="2290.55,-84.8 2175.45,-84.8 2175.45,-48.8 2290.55,-48.8 2290.55,-84.8"/>
<text text-anchor="middle" x="2233" y="-62.6" font-family="Times,serif" font-size="14.00">HomeComponent</text>
</g>
<!-- HomeComponent&#45;&gt;AppModule -->
<g id="edge17" class="edge">
<title>HomeComponent&#45;&gt;AppModule</title>
<path fill="none" stroke="black" d="M2233,-85.08C2233,-100.75 2233,-120.8 2233,-120.8 2233,-120.8 2947.27,-120.8 2947.27,-120.8"/>
<polygon fill="black" stroke="black" points="2947.27,-124.3 2957.27,-120.8 2947.27,-117.3 2947.27,-124.3"/>
</g>
<!-- LoginComponent -->
<g id="node18" class="node">
<title>LoginComponent</title>
<polygon fill="#ffffb3" stroke="black" points="2157.28,-84.8 2042.72,-84.8 2042.72,-48.8 2157.28,-48.8 2157.28,-84.8"/>
<text text-anchor="middle" x="2100" y="-62.6" font-family="Times,serif" font-size="14.00">LoginComponent</text>
</g>
<!-- LoginComponent&#45;&gt;AppModule -->
<g id="edge18" class="edge">
<title>LoginComponent&#45;&gt;AppModule</title>
<path fill="none" stroke="black" d="M2100,-84.83C2100,-101.2 2100,-122.8 2100,-122.8 2100,-122.8 2947.14,-122.8 2947.14,-122.8"/>
<polygon fill="black" stroke="black" points="2947.14,-126.3 2957.14,-122.8 2947.14,-119.3 2947.14,-126.3"/>
</g>
<!-- RegistrationComponent -->
<g id="node19" class="node">
<title>RegistrationComponent</title>
<polygon fill="#ffffb3" stroke="black" points="2024.77,-84.8 1875.23,-84.8 1875.23,-48.8 2024.77,-48.8 2024.77,-84.8"/>
<text text-anchor="middle" x="1950" y="-62.6" font-family="Times,serif" font-size="14.00">RegistrationComponent</text>
</g>
<!-- RegistrationComponent&#45;&gt;AppModule -->
<g id="edge19" class="edge">
<title>RegistrationComponent&#45;&gt;AppModule</title>
<path fill="none" stroke="black" d="M1950,-84.82C1950,-102.17 1950,-125.8 1950,-125.8 1950,-125.8 2947.23,-125.8 2947.23,-125.8"/>
<polygon fill="black" stroke="black" points="2947.23,-129.3 2957.23,-125.8 2947.23,-122.3 2947.23,-129.3"/>
</g>
<!-- SearchByBusTypeComponent -->
<g id="node20" class="node">
<title>SearchByBusTypeComponent</title>
<polygon fill="#ffffb3" stroke="black" points="1857.3,-84.8 1670.7,-84.8 1670.7,-48.8 1857.3,-48.8 1857.3,-84.8"/>
<text text-anchor="middle" x="1764" y="-62.6" font-family="Times,serif" font-size="14.00">SearchByBusTypeComponent</text>
</g>
<!-- SearchByBusTypeComponent&#45;&gt;AppModule -->
<g id="edge20" class="edge">
<title>SearchByBusTypeComponent&#45;&gt;AppModule</title>
<path fill="none" stroke="black" d="M1764,-85.1C1764,-103.07 1764,-127.8 1764,-127.8 1764,-127.8 2947.2,-127.8 2947.2,-127.8"/>
<polygon fill="black" stroke="black" points="2947.2,-131.3 2957.2,-127.8 2947.2,-124.3 2947.2,-131.3"/>
</g>
<!-- SearchByIdComponent -->
<g id="node21" class="node">
<title>SearchByIdComponent</title>
<polygon fill="#ffffb3" stroke="black" points="1652.92,-84.8 1505.08,-84.8 1505.08,-48.8 1652.92,-48.8 1652.92,-84.8"/>
<text text-anchor="middle" x="1579" y="-62.6" font-family="Times,serif" font-size="14.00">SearchByIdComponent</text>
</g>
<!-- SearchByIdComponent&#45;&gt;AppModule -->
<g id="edge21" class="edge">
<title>SearchByIdComponent&#45;&gt;AppModule</title>
<path fill="none" stroke="black" d="M1579,-85.02C1579,-103.63 1579,-129.8 1579,-129.8 1579,-129.8 2947.27,-129.8 2947.27,-129.8"/>
<polygon fill="black" stroke="black" points="2947.27,-133.3 2957.27,-129.8 2947.27,-126.3 2947.27,-133.3"/>
</g>
<!-- SearchByNameComponent -->
<g id="node22" class="node">
<title>SearchByNameComponent</title>
<polygon fill="#ffffb3" stroke="black" points="1487.68,-84.8 1318.32,-84.8 1318.32,-48.8 1487.68,-48.8 1487.68,-84.8"/>
<text text-anchor="middle" x="1403" y="-62.6" font-family="Times,serif" font-size="14.00">SearchByNameComponent</text>
</g>
<!-- SearchByNameComponent&#45;&gt;AppModule -->
<g id="edge22" class="edge">
<title>SearchByNameComponent&#45;&gt;AppModule</title>
<path fill="none" stroke="black" d="M1403,-84.91C1403,-104.14 1403,-131.8 1403,-131.8 1403,-131.8 2947.13,-131.8 2947.13,-131.8"/>
<polygon fill="black" stroke="black" points="2947.13,-135.3 2957.13,-131.8 2947.13,-128.3 2947.13,-135.3"/>
</g>
<!-- SearchBySourceComponent -->
<g id="node23" class="node">
<title>SearchBySourceComponent</title>
<polygon fill="#ffffb3" stroke="black" points="1300.13,-84.8 1125.87,-84.8 1125.87,-48.8 1300.13,-48.8 1300.13,-84.8"/>
<text text-anchor="middle" x="1213" y="-62.6" font-family="Times,serif" font-size="14.00">SearchBySourceComponent</text>
</g>
<!-- SearchBySourceComponent&#45;&gt;AppModule -->
<g id="edge23" class="edge">
<title>SearchBySourceComponent&#45;&gt;AppModule</title>
<path fill="none" stroke="black" d="M1213,-85.02C1213,-105.17 1213,-134.8 1213,-134.8 1213,-134.8 2947.05,-134.8 2947.05,-134.8"/>
<polygon fill="black" stroke="black" points="2947.05,-138.3 2957.05,-134.8 2947.05,-131.3 2947.05,-138.3"/>
</g>
<!-- UpdateCustomerComponent -->
<g id="node24" class="node">
<title>UpdateCustomerComponent</title>
<polygon fill="#ffffb3" stroke="black" points="1108.2,-84.8 931.8,-84.8 931.8,-48.8 1108.2,-48.8 1108.2,-84.8"/>
<text text-anchor="middle" x="1020" y="-62.6" font-family="Times,serif" font-size="14.00">UpdateCustomerComponent</text>
</g>
<!-- UpdateCustomerComponent&#45;&gt;AppModule -->
<g id="edge24" class="edge">
<title>UpdateCustomerComponent&#45;&gt;AppModule</title>
<path fill="none" stroke="black" d="M1020,-84.83C1020,-105.57 1020,-136.8 1020,-136.8 1020,-136.8 2947.21,-136.8 2947.21,-136.8"/>
<polygon fill="black" stroke="black" points="2947.21,-140.3 2957.21,-136.8 2947.21,-133.3 2947.21,-140.3"/>
</g>
<!-- UpdatebusComponent -->
<g id="node25" class="node">
<title>UpdatebusComponent</title>
<polygon fill="#ffffb3" stroke="black" points="913.7,-84.8 772.3,-84.8 772.3,-48.8 913.7,-48.8 913.7,-84.8"/>
<text text-anchor="middle" x="843" y="-62.6" font-family="Times,serif" font-size="14.00">UpdatebusComponent</text>
</g>
<!-- UpdatebusComponent&#45;&gt;AppModule -->
<g id="edge25" class="edge">
<title>UpdatebusComponent&#45;&gt;AppModule</title>
<path fill="none" stroke="black" d="M843,-84.97C843,-106.3 843,-138.8 843,-138.8 843,-138.8 2946.9,-138.8 2946.9,-138.8"/>
<polygon fill="black" stroke="black" points="2946.9,-142.3 2956.9,-138.8 2946.9,-135.3 2946.9,-142.3"/>
</g>
<!-- ViewAllBusComponent -->
<g id="node26" class="node">
<title>ViewAllBusComponent</title>
<polygon fill="#ffffb3" stroke="black" points="754.82,-84.8 603.18,-84.8 603.18,-48.8 754.82,-48.8 754.82,-84.8"/>
<text text-anchor="middle" x="679" y="-62.6" font-family="Times,serif" font-size="14.00">ViewAllBusComponent</text>
</g>
<!-- ViewAllBusComponent&#45;&gt;AppModule -->
<g id="edge26" class="edge">
<title>ViewAllBusComponent&#45;&gt;AppModule</title>
<path fill="none" stroke="black" d="M679,-85.09C679,-107.01 679,-140.8 679,-140.8 679,-140.8 2947.25,-140.8 2947.25,-140.8"/>
<polygon fill="black" stroke="black" points="2947.25,-144.3 2957.25,-140.8 2947.25,-137.3 2947.25,-144.3"/>
</g>
<!-- ViewAllCustomersComponent -->
<g id="node27" class="node">
<title>ViewAllCustomersComponent</title>
<polygon fill="#ffffb3" stroke="black" points="585.92,-84.8 396.08,-84.8 396.08,-48.8 585.92,-48.8 585.92,-84.8"/>
<text text-anchor="middle" x="491" y="-62.6" font-family="Times,serif" font-size="14.00">ViewAllCustomersComponent</text>
</g>
<!-- ViewAllCustomersComponent&#45;&gt;AppModule -->
<g id="edge27" class="edge">
<title>ViewAllCustomersComponent&#45;&gt;AppModule</title>
<path fill="none" stroke="black" d="M491,-85.05C491,-107.82 491,-143.8 491,-143.8 491,-143.8 2947.3,-143.8 2947.3,-143.8"/>
<polygon fill="black" stroke="black" points="2947.3,-147.3 2957.3,-143.8 2947.3,-140.3 2947.3,-147.3"/>
</g>
<!-- ViewAllticketsComponent -->
<g id="node28" class="node">
<title>ViewAllticketsComponent</title>
<polygon fill="#ffffb3" stroke="black" points="378.08,-84.8 211.92,-84.8 211.92,-48.8 378.08,-48.8 378.08,-84.8"/>
<text text-anchor="middle" x="295" y="-62.6" font-family="Times,serif" font-size="14.00">ViewAllticketsComponent</text>
</g>
<!-- ViewAllticketsComponent&#45;&gt;AppModule -->
<g id="edge28" class="edge">
<title>ViewAllticketsComponent&#45;&gt;AppModule</title>
<path fill="none" stroke="black" d="M295,-85.12C295,-108.46 295,-145.8 295,-145.8 295,-145.8 2947.34,-145.8 2947.34,-145.8"/>
<polygon fill="black" stroke="black" points="2947.34,-149.3 2957.34,-145.8 2947.34,-142.3 2947.34,-149.3"/>
</g>
<!-- ViewticketByIdComponent -->
<g id="node29" class="node">
<title>ViewticketByIdComponent</title>
<polygon fill="#ffffb3" stroke="black" points="194.25,-84.8 23.75,-84.8 23.75,-48.8 194.25,-48.8 194.25,-84.8"/>
<text text-anchor="middle" x="109" y="-62.6" font-family="Times,serif" font-size="14.00">ViewticketByIdComponent</text>
</g>
<!-- ViewticketByIdComponent&#45;&gt;AppModule -->
<g id="edge29" class="edge">
<title>ViewticketByIdComponent&#45;&gt;AppModule</title>
<path fill="none" stroke="black" d="M109,-85.18C109,-109.08 109,-147.8 109,-147.8 109,-147.8 2947.31,-147.8 2947.31,-147.8"/>
<polygon fill="black" stroke="black" points="2947.31,-151.3 2957.31,-147.8 2947.31,-144.3 2947.31,-151.3"/>
</g>
<!-- AppComponent  -->
<g id="node33" class="node">
<title>AppComponent </title>
<polygon fill="#80b1d3" stroke="black" points="3053.44,-214.8 2944.56,-214.8 2944.56,-178.8 3053.44,-178.8 3053.44,-214.8"/>
<text text-anchor="middle" x="2999" y="-192.6" font-family="Times,serif" font-size="14.00">AppComponent </text>
</g>
<!-- AppModule&#45;&gt;AppComponent  -->
<g id="edge32" class="edge">
<title>AppModule&#45;&gt;AppComponent </title>
<path fill="none" stroke="black" stroke-dasharray="1,5" d="M2999,-149.91C2999,-149.91 2999,-168.79 2999,-168.79"/>
<polygon fill="black" stroke="black" points="2995.5,-168.79 2999,-178.79 3002.5,-168.79 2995.5,-168.79"/>
</g>
<!-- AppRoutingModule -->
<g id="node31" class="node">
<title>AppRoutingModule</title>
<polygon fill="#8dd3c7" stroke="black" points="5708.27,-84.8 5705.27,-88.8 5684.27,-88.8 5681.27,-84.8 5579.73,-84.8 5579.73,-48.8 5708.27,-48.8 5708.27,-84.8"/>
<text text-anchor="middle" x="5644" y="-62.6" font-family="Times,serif" font-size="14.00">AppRoutingModule</text>
</g>
<!-- AppRoutingModule&#45;&gt;AppModule -->
<g id="edge30" class="edge">
<title>AppRoutingModule&#45;&gt;AppModule</title>
<path fill="none" stroke="black" d="M5644,-85.18C5644,-109.08 5644,-147.8 5644,-147.8 5644,-147.8 3050.81,-147.8 3050.81,-147.8"/>
<polygon fill="black" stroke="black" points="3050.81,-144.3 3040.81,-147.8 3050.81,-151.3 3050.81,-144.3"/>
</g>
<!-- MyMaterialModule -->
<g id="node32" class="node">
<title>MyMaterialModule</title>
<polygon fill="#8dd3c7" stroke="black" points="5561.42,-84.8 5558.42,-88.8 5537.42,-88.8 5534.42,-84.8 5434.58,-84.8 5434.58,-48.8 5561.42,-48.8 5561.42,-84.8"/>
<text text-anchor="middle" x="5498" y="-62.6" font-family="Times,serif" font-size="14.00">MyMaterialModule</text>
</g>
<!-- MyMaterialModule&#45;&gt;AppModule -->
<g id="edge31" class="edge">
<title>MyMaterialModule&#45;&gt;AppModule</title>
<path fill="none" stroke="black" d="M5498,-85.12C5498,-108.46 5498,-145.8 5498,-145.8 5498,-145.8 3050.81,-145.8 3050.81,-145.8"/>
<polygon fill="black" stroke="black" points="3050.81,-142.3 3040.81,-145.8 3050.81,-149.3 3050.81,-142.3"/>
</g>
</g>
</svg>
